<svg width="48px" height="48px" viewBox="0 0 48 48" version="1.1" xmlns="http://www.w3.org/2000/svg" xmlns:xlink="http://www.w3.org/1999/xlink">
  <g stroke="none" stroke-width="1" fill="none" fill-rule="evenodd">
    <g transform="translate(-26.000000, 0.000000)" fill="#646464" fill-rule="nonzero">
      <g id="Group" transform="translate(26.000000, 0.000000)">
        <g id="Shape">
          <path d="M46.1760242,7.8239758 C47.735663,6.264337 47.7275543,3.7275543 46.1756918,2.1756918 L45.8243082,1.8243082 C44.2644858,0.2644858 41.7386425,0.2613575 40.1760242,1.8239758 L24.7101458,17.2898542 C24.3179431,17.6820569 23.6860717,17.6860717 23.2898542,17.2898542 L7.8239758,1.8239758 C6.264337,0.264337 3.7275543,0.2724457 2.1756918,1.8243082 L1.8243082,2.1756918 C0.2644858,3.7355142 0.2613575,6.2613575 1.8239758,7.8239758 L17.2898542,23.2898542 C17.6820569,23.6820569 17.6860717,24.3139283 17.2898542,24.7101458 L1.8239758,40.1760242 C0.264337,41.735663 0.2724457,44.2724457 1.8243082,45.8243082 L2.1756918,46.1756918 C3.7355142,47.7355142 6.2613575,47.7386425 7.8239758,46.1760242 L23.2898542,30.7101458 C23.6820569,30.3179431 24.3139283,30.3139283 24.7101458,30.7101458 L40.1760242,46.1760242 C41.735663,47.735663 44.2724457,47.7275543 45.8243082,46.1756918 L46.1756918,45.8243082 C47.7355142,44.2644858 47.7386425,41.7386425 46.1760242,40.1760242 L30.7101458,24.7101458 C30.3179431,24.3179431 30.3139283,23.6860717 30.7101458,23.2898542 L46.1760242,7.8239758 Z"></path>
        </g>
      </g>
    </g>
  </g>
</svg>
