<svg width="60px" height="76px" viewBox="0 0 60 76" version="1.1" xmlns="http://www.w3.org/2000/svg" xmlns:xlink="http://www.w3.org/1999/xlink">
  <g stroke="none" stroke-width="1" fill="none" fill-rule="evenodd">
      <g transform="translate(-20.000000, 0.000000)" fill="#FF7250" fill-rule="nonzero">
        <g transform="translate(20.000000, 0.000000)">
          <path d="M56.5,15.9 L44,3.5 L41,0.5 L36.8,0.5 L6,0.5 C3,0.5 0.5,3 0.5,6 L0.5,70 C0.5,73 3,75.5 6,75.5 L54,75.5 C57,75.5 59.5,73 59.5,70 L59.5,23 L59.5,18.9 L56.5,15.9 Z M41.2,4.9 L56,19.7 L43.7,19.7 C42.3,19.7 41.2,18.6 41.2,17.2 L41.2,4.9 Z M56.5,70 C56.5,71.4 55.4,72.5 54,72.5 L6,72.5 C4.6,72.5 3.5,71.4 3.5,70 L3.5,6 C3.5,4.6 4.6,3.5 6,3.5 L38.2,3.5 L38.2,17.2 C38.2,20.2 40.7,22.7 43.7,22.7 L56.5,22.7 L56.5,70 Z" id="Shape"></path>
          <path d="M46.5,35.8 L13.5,35.8 C12.7,35.8 12,35.1 12,34.3 C12,33.5 12.7,32.8 13.5,32.8 L46.4,32.8 C47.2,32.8 47.9,33.5 47.9,34.3 C47.9,35.1 47.3,35.8 46.5,35.8 Z" id="Shape"></path>
          <path d="M46.5,49.5 L13.5,49.5 C12.7,49.5 12,48.8 12,48 C12,47.2 12.7,46.5 13.5,46.5 L46.4,46.5 C47.2,46.5 47.9,47.2 47.9,48 C47.9,48.8 47.3,49.5 46.5,49.5 Z" id="Shape"></path>
          <path d="M46.5,63.3 L13.5,63.3 C12.7,63.3 12,62.6 12,61.8 C12,61 12.7,60.3 13.5,60.3 L46.4,60.3 C47.2,60.3 47.9,61 47.9,61.8 C47.9,62.6 47.3,63.3 46.5,63.3 Z" id="Shape"></path>
        </g>
      </g>
  </g>
</svg>
