<svg width="96px" height="78px" viewBox="0 0 96 78" version="1.1" xmlns="http://www.w3.org/2000/svg" xmlns:xlink="http://www.w3.org/1999/xlink">
  <g stroke="none" stroke-width="1" fill="none" fill-rule="evenodd">
    <g transform="translate(-2.000000, 0.000000)" fill="#3F9CFF" fill-rule="nonzero">
      <path d="M95,12 L71,12 L62,3 C59,0 59,0 53.001,0 L38,0 L29,0 L23,0 C17,0 5,0 5,0 C3.343,0 2,1.343 2,3 L2,15 L2,75 C2,76.656 3.343,78.001 5,78.001 L95,78.001 C96.657,78.001 98,76.656 98,75 L98,15 C98,13.343 96.657,12 95,12 Z M53.001,3 C53.871,3 57.041,2.906 57.815,3.277 C58.389,3.551 59.426,4.67 59.878,5.121 L66.758,12 L62,12 L56,12 L47,3 L53.001,3 Z M38,3 L40.461,3 C41.453,3.023 42.431,3.093 42.816,3.277 C43.389,3.551 44.427,4.67 44.879,5.121 L51.757,12 L45.758,12 L44,12 L44,12.01 C42.803,12.003 41.419,11.951 40.941,11.723 C40.665,11.591 40.282,11.263 39.909,10.909 L32,3 L38,3 Z M95,75 L5,75 L5,15 L5,12 L5,3 C14,3 14,3 23,3 L25.461,3 C26.453,3.023 27.431,3.093 27.816,3.277 C28.093,3.41 28.48,3.741 28.856,4.098 L29.844,5.085 C29.854,5.096 29.867,5.11 29.878,5.12 L36.758,12 C39.43,14.671 39.734,14.963 44,14.995 L44,15 L45.758,15 L53.001,15 L56,15 L62,15 L71,15 L95,15 L95,75 Z" id="Shape"></path>
    </g>
  </g>
</svg>
