<?xml version="1.0" encoding="UTF-8"?>
<svg width="315px" height="50px" viewBox="0 0 315 50" version="1.1" xmlns="http://www.w3.org/2000/svg" xmlns:xlink="http://www.w3.org/1999/xlink">
    <g id="Page-1" stroke="none" stroke-width="1" fill="none" fill-rule="evenodd">
        <g id="Group">
            <path d="M20.816,49.864 C11.6,49.864 4.976,46.768 0.512,42.232 L6.056,34.456 C9.44,37.984 14.696,40.936 21.32,40.936 C26.936,40.936 29.672,38.344 29.672,35.608 C29.672,27.112 2.024,32.944 2.024,14.872 C2.024,6.88 8.936,0.256 20.24,0.256 C27.872,0.256 34.208,2.56 38.96,6.952 L33.272,14.44 C29.384,10.84 24.2,9.184 19.304,9.184 C14.912,9.184 12.464,11.128 12.464,14.008 C12.464,21.64 40.04,16.528 40.04,34.456 C40.04,43.24 33.776,49.864 20.816,49.864 Z M79.7615,49 L70.6175,49 L70.6175,27.832 C70.6175,23.008 68.0975,21.496 64.1375,21.496 C60.6095,21.496 57.8015,23.512 56.2175,25.6 L56.2175,49 L47.0735,49 L47.0735,0.976 L56.2175,0.976 L56.2175,18.76 C58.4495,16.096 62.7695,13.36 68.4575,13.36 C76.0895,13.36 79.7615,17.536 79.7615,24.304 L79.7615,49 Z M119.195,49 L110.051,49 L110.051,45.4 C107.675,48.208 103.571,49.864 99.035,49.864 C93.491,49.864 86.939,46.12 86.939,38.344 C86.939,30.208 93.491,27.112 99.035,27.112 C103.643,27.112 107.747,28.624 110.051,31.36 L110.051,26.68 C110.051,23.152 107.027,20.848 102.419,20.848 C98.675,20.848 95.219,22.216 92.267,24.952 L88.811,18.832 C93.059,15.088 98.531,13.36 104.003,13.36 C111.923,13.36 119.195,16.528 119.195,26.536 L119.195,49 Z M102.707,43.672 C105.659,43.672 108.539,42.664 110.051,40.648 L110.051,36.328 C108.539,34.312 105.659,33.304 102.707,33.304 C99.107,33.304 96.155,35.176 96.155,38.56 C96.155,41.8 99.107,43.672 102.707,43.672 Z M137.7485,49 L128.6045,49 L128.6045,14.224 L137.7485,14.224 L137.7485,18.976 C140.1965,15.88 144.5165,13.36 148.8365,13.36 L148.8365,22.288 C148.1885,22.144 147.3245,22.072 146.3165,22.072 C143.2925,22.072 139.2605,23.8 137.7485,26.032 L137.7485,49 Z M171.206,49.864 C160.622,49.864 152.63,42.736 152.63,31.576 C152.63,21.496 160.046,13.36 170.63,13.36 C180.998,13.36 188.054,21.136 188.054,32.512 L188.054,34.528 L162.206,34.528 C162.782,38.92 166.31,42.592 172.214,42.592 C175.166,42.592 179.27,41.296 181.502,39.136 L185.534,45.04 C182.078,48.208 176.606,49.864 171.206,49.864 Z M179.198,28.336 C178.982,25.024 176.678,20.632 170.63,20.632 C164.942,20.632 162.494,24.88 162.062,28.336 L179.198,28.336 Z" id="Share" fill="#000000"></path>
            <path d="M221.816,49 L195.752,49 L195.752,0.976 L221.024,0.976 C230.168,0.976 234.848,6.808 234.848,13.216 C234.848,19.264 231.104,23.296 226.568,24.232 C231.68,25.024 235.784,29.992 235.784,36.04 C235.784,43.24 230.96,49 221.816,49 Z M218.792,20.2 C222.248,20.2 224.408,18.04 224.408,15.016 C224.408,11.992 222.248,9.76 218.792,9.76 L205.976,9.76 L205.976,20.2 L218.792,20.2 Z M219.152,40.144 C223.04,40.144 225.344,38.056 225.344,34.6 C225.344,31.576 223.184,28.984 219.152,28.984 L205.976,28.984 L205.976,40.144 L219.152,40.144 Z M259.7375,49.864 C248.2895,49.864 241.3775,41.512 241.3775,31.576 C241.3775,21.712 248.2895,13.36 259.7375,13.36 C271.2575,13.36 278.1695,21.712 278.1695,31.576 C278.1695,41.512 271.2575,49.864 259.7375,49.864 Z M259.7375,41.728 C265.4255,41.728 268.6655,37.048 268.6655,31.576 C268.6655,26.176 265.4255,21.496 259.7375,21.496 C254.0495,21.496 250.8815,26.176 250.8815,31.576 C250.8815,37.048 254.0495,41.728 259.7375,41.728 Z M314.579,49 L304.355,49 L296.435,37.264 L288.443,49 L278.291,49 L290.603,31.144 L279.011,14.224 L289.235,14.224 L296.435,24.952 L303.563,14.224 L313.787,14.224 L302.123,31.144 L314.579,49 Z" id="Box" fill="#0073E1"></path>
        </g>
    </g>
</svg>
