<?xml version="1.0" encoding="UTF-8"?>
<svg width="298px" height="50px" viewBox="0 0 298 50" version="1.1" xmlns="http://www.w3.org/2000/svg" xmlns:xlink="http://www.w3.org/1999/xlink">
    <!-- Generator: Sketch 51 (57462) - http://www.bohemiancoding.com/sketch -->
    <title>Group</title>
    <desc>Created with Sketch.</desc>
    <defs></defs>
    <g id="Page-1" stroke="none" stroke-width="1" fill="none" fill-rule="evenodd">
        <g id="Group">
            <path d="M17.88,49.864 C9.96,49.864 3.984,46.696 0.312,42.232 L2.976,39.136 C6.072,42.736 11.112,46.12 17.952,46.12 C27.816,46.12 30.624,40.648 30.624,36.544 C30.624,22.432 1.824,29.776 1.824,13 C1.824,5.152 8.88,0.184 17.592,0.184 C24.792,0.184 30.12,2.704 33.864,6.952 L31.128,9.976 C27.672,5.8 22.776,3.928 17.376,3.928 C10.968,3.928 6.144,7.6 6.144,12.784 C6.144,25.096 34.944,18.328 34.944,36.256 C34.944,42.448 30.84,49.864 17.88,49.864 Z M72.2175,49 L68.4735,49 L68.4735,25.312 C68.4735,18.616 65.0895,16.744 60.0495,16.744 C55.5855,16.744 50.9775,19.552 48.7455,22.72 L48.7455,49 L45.0015,49 L45.0015,0.976 L48.7455,0.976 L48.7455,19.48 C51.2655,16.456 56.2335,13.36 61.2735,13.36 C68.3295,13.36 72.2175,16.672 72.2175,24.52 L72.2175,49 Z M110.067,49 L106.323,49 L106.323,44.896 C103.227,48.28 99.339,49.864 94.515,49.864 C88.539,49.864 82.347,45.76 82.347,38.272 C82.347,30.712 88.467,26.752 94.515,26.752 C99.339,26.752 103.299,28.336 106.323,31.72 L106.323,24.664 C106.323,19.48 102.147,16.672 96.963,16.672 C92.643,16.672 89.259,18.184 86.091,21.784 L84.003,19.192 C87.603,15.304 91.635,13.36 97.395,13.36 C104.451,13.36 110.067,16.744 110.067,24.52 L110.067,49 Z M95.811,46.912 C99.987,46.912 103.875,45.328 106.323,42.16 L106.323,34.528 C103.875,31.36 99.987,29.704 95.811,29.704 C90.051,29.704 86.307,33.376 86.307,38.344 C86.307,43.24 90.051,46.912 95.811,46.912 Z M125.8125,49 L122.0685,49 L122.0685,14.224 L125.8125,14.224 L125.8125,20.2 C128.7645,16.312 132.7245,13.504 137.5485,13.504 L137.5485,17.608 C136.9005,17.464 136.3965,17.464 135.6765,17.464 C132.1485,17.464 127.3965,20.632 125.8125,23.656 L125.8125,49 Z M160.638,49.864 C150.486,49.864 143.214,42.304 143.214,31.576 C143.214,21.496 150.342,13.36 159.99,13.36 C170.574,13.36 176.406,21.784 176.406,31.792 L176.406,32.8 L147.318,32.8 C147.678,40.36 152.718,46.624 160.926,46.624 C165.318,46.624 169.35,44.968 172.302,41.8 L174.246,44.248 C170.79,47.848 166.398,49.864 160.638,49.864 Z M172.59,29.848 C172.518,23.944 168.63,16.6 159.918,16.6 C151.71,16.6 147.606,23.8 147.318,29.848 L172.59,29.848 Z" id="Share" fill="#0073E1"></path>
            <path d="M207.136,49 L186.976,49 L186.976,0.976 L206.704,0.976 C214.768,0.976 219.952,5.656 219.952,13.216 C219.952,19.264 215.848,23.368 211.528,24.232 C216.64,25.024 220.888,30.352 220.888,36.04 C220.888,44.032 215.704,49 207.136,49 Z M206.2,22.504 C212.392,22.504 215.632,18.616 215.632,13.648 C215.632,8.752 212.392,4.72 206.2,4.72 L191.08,4.72 L191.08,22.504 L206.2,22.504 Z M206.488,45.256 C212.824,45.256 216.568,41.584 216.568,35.752 C216.568,30.856 213.184,26.248 206.488,26.248 L191.08,26.248 L191.08,45.256 L206.488,45.256 Z M246.0655,49.864 C235.9135,49.864 229.3615,41.728 229.3615,31.576 C229.3615,21.424 235.9135,13.36 246.0655,13.36 C256.3615,13.36 262.8415,21.424 262.8415,31.576 C262.8415,41.728 256.3615,49.864 246.0655,49.864 Z M246.0655,46.48 C254.2735,46.48 258.8095,39.352 258.8095,31.576 C258.8095,23.872 254.2735,16.744 246.0655,16.744 C238.0015,16.744 233.3935,23.872 233.3935,31.576 C233.3935,39.352 238.0015,46.48 246.0655,46.48 Z M297.451,49 L292.987,49 L281.467,33.664 L269.875,49 L265.411,49 L279.163,31.144 L266.203,14.224 L270.667,14.224 L281.467,28.552 L292.195,14.224 L296.659,14.224 L283.699,31.144 L297.451,49 Z" id="Box" fill="#000000"></path>
        </g>
    </g>
</svg>